<svg width="388" height="31" viewBox="0 0 388 31" fill="none" xmlns="http://www.w3.org/2000/svg">
<g clip-path="url(#clip0_2062_3668)">
<path d="M371 6.07814V0L388.531 10.1932V13.6286V16.2713V19.7068L371 29.8999V23.784L386.274 14.95L371 6.07814Z" fill="#FAE64D"/>
<path d="M274 15.0625H282.088V18.1204H274V15.0625Z" fill="black"/>
<path d="M284.308 23.217L285.7 20.4233C287.091 21.3294 289.198 21.9712 291.154 21.9712C293.487 21.9712 294.427 21.3294 294.427 20.2346C294.427 17.2144 284.721 20.0458 284.721 13.7789C284.721 10.7965 287.392 8.87109 291.606 8.87109C293.675 8.87109 296.083 9.36188 297.474 10.2302L296.083 13.0239C294.578 12.1556 293.073 11.8535 291.606 11.8535C289.386 11.8535 288.333 12.6086 288.333 13.6279C288.333 16.7991 298.039 13.9677 298.039 20.1213C298.039 23.066 295.33 24.9914 290.929 24.9914C288.333 24.9914 285.737 24.2363 284.308 23.217Z" fill="black"/>
<path d="M301.236 2.90625H304.923V24.7649H301.236V2.90625Z" fill="black"/>
<path d="M309.212 4.2274C309.212 2.98157 310.228 2 311.544 2C312.899 2 313.877 2.90606 313.877 4.11414C313.877 5.39772 312.899 6.41703 311.544 6.41703C310.19 6.45478 309.212 5.47323 309.212 4.2274ZM309.701 9.0597H313.388V24.8025H309.701V9.0597Z" fill="black"/>
<path d="M333.552 2.90494V24.7636H330.016V22.725C328.774 24.2351 326.969 24.9524 324.824 24.9524C320.272 24.9524 316.887 21.7812 316.887 16.8733C316.887 11.9655 320.272 8.83207 324.824 8.83207C326.856 8.83207 328.624 9.51161 329.865 10.9462V2.86719H333.552V2.90494ZM329.941 16.9111C329.941 13.8909 327.909 12.0033 325.276 12.0033C322.643 12.0033 320.611 13.9286 320.611 16.9111C320.611 19.8935 322.643 21.8189 325.276 21.8189C327.909 21.8189 329.941 19.9313 329.941 16.9111Z" fill="black"/>
<path d="M353.039 18.0827H340.737C341.189 20.3856 343.07 21.8579 345.816 21.8579C347.584 21.8579 348.939 21.2916 350.067 20.1591L352.023 22.4242C350.631 24.0853 348.412 24.9914 345.703 24.9914C340.437 24.9914 337.051 21.5937 337.051 16.9124C337.051 12.2311 340.474 8.87109 345.139 8.87109C349.729 8.87109 353.077 12.08 353.077 16.9879C353.077 17.2899 353.077 17.7429 353.039 18.0827ZM340.7 15.6288H349.578C349.277 13.3636 347.547 11.8158 345.139 11.8158C342.807 11.8158 341.076 13.3636 340.7 15.6288Z" fill="black"/>
<path d="M365.679 8.87109V12.3821C365.34 12.3066 365.077 12.3066 364.813 12.3066C362.03 12.3066 360.261 13.9677 360.261 17.1766V24.8026H356.612V9.05986H360.111V11.3628C361.164 9.70165 363.083 8.87109 365.679 8.87109Z" fill="black"/>
<path d="M95 16.9124C95 12.1933 98.5362 8.87109 103.502 8.87109C106.549 8.87109 108.994 10.1547 110.198 12.5331L107.377 14.1942C106.436 12.6841 105.044 12.0045 103.464 12.0045C100.756 12.0045 98.7243 13.8922 98.7243 16.9124C98.7243 19.9703 100.793 21.8202 103.464 21.8202C105.007 21.8202 106.436 21.1406 107.377 19.6305L110.198 21.2916C108.994 23.6323 106.549 24.9914 103.502 24.9914C98.4986 24.9914 95 21.6314 95 16.9124Z" fill="black"/>
<path d="M111.816 16.9124C111.816 12.1933 115.353 8.87109 120.168 8.87109C125.058 8.87109 128.519 12.1933 128.519 16.9124C128.519 21.6314 125.021 24.9914 120.168 24.9914C115.315 24.9914 111.816 21.6314 111.816 16.9124ZM124.795 16.9124C124.795 13.8922 122.801 12.0045 120.13 12.0045C117.497 12.0045 115.503 13.9299 115.503 16.9124C115.503 19.8948 117.497 21.8202 120.13 21.8202C122.801 21.8202 124.795 19.9326 124.795 16.9124Z" fill="black"/>
<path d="M158.239 15.7798V24.8026H154.552V16.2706C154.552 13.4769 153.273 12.1178 151.016 12.1178C148.608 12.1178 146.953 13.7034 146.953 16.8369V24.8026H143.266V16.2706C143.266 13.4769 141.987 12.1178 139.73 12.1178C137.285 12.1178 135.667 13.7034 135.667 16.8369V24.8026H131.98V9.05986H135.479V11.0607C136.645 9.66389 138.489 8.87109 140.633 8.87109C142.928 8.87109 144.846 9.7394 145.9 11.476C147.179 9.85266 149.285 8.87109 151.768 8.87109C155.606 8.87109 158.239 11.023 158.239 15.7798Z" fill="black"/>
<path d="M179.606 16.914C179.606 21.8218 176.221 24.993 171.669 24.993C169.675 24.993 167.907 24.3135 166.665 22.8789V30.5049H162.979V9.0615H166.477V11.1379C167.719 9.62779 169.524 8.91049 171.669 8.91049C176.221 8.87274 179.606 12.0439 179.606 16.914ZM175.844 16.914C175.844 13.8938 173.851 12.0062 171.217 12.0062C168.584 12.0062 166.552 13.9316 166.552 16.914C166.552 19.8964 168.584 21.8218 171.217 21.8218C173.851 21.8218 175.844 19.9342 175.844 16.914Z" fill="black"/>
<path d="M196.008 15.5546V24.7661H192.547V22.8408C191.682 24.1999 189.952 24.9549 187.619 24.9549C184.045 24.9549 181.788 22.9918 181.788 20.2359C181.788 17.6309 183.556 15.5546 188.296 15.5546H192.359V15.328C192.359 13.1762 191.08 11.8926 188.447 11.8926C186.679 11.8926 184.873 12.4966 183.707 13.4404L182.277 10.76C183.932 9.47642 186.378 8.79688 188.898 8.79688C193.375 8.87238 196.008 11.0243 196.008 15.5546ZM192.322 19.8583V18.0462H188.522C186.039 18.0462 185.362 18.99 185.362 20.1226C185.362 21.4439 186.491 22.3122 188.372 22.3122C190.14 22.3122 191.72 21.4817 192.322 19.8583Z" fill="black"/>
<path d="M209.777 8.87109V12.3821C209.439 12.3066 209.175 12.3066 208.912 12.3066C206.128 12.3066 204.36 13.9677 204.36 17.1766V24.8026H200.711V9.05986H204.21V11.3628C205.263 9.70165 207.144 8.87109 209.777 8.87109Z" fill="black"/>
<path d="M212.373 4.22739C212.373 2.98156 213.389 2 214.705 2C216.06 2 217.038 2.90606 217.038 4.11414C217.038 5.39772 216.06 6.41703 214.705 6.41703C213.389 6.45479 212.373 5.47322 212.373 4.22739ZM212.862 9.0597H216.549V24.8025H212.862V9.0597Z" fill="black"/>
<path d="M219.559 23.217L220.951 20.4233C222.342 21.3294 224.449 21.9712 226.405 21.9712C228.738 21.9712 229.678 21.3294 229.678 20.2346C229.678 17.2144 219.972 20.0458 219.972 13.7789C219.972 10.7965 222.643 8.87109 226.857 8.87109C228.926 8.87109 231.334 9.36187 232.725 10.2302L231.334 13.0239C229.829 12.1556 228.324 11.8535 226.857 11.8535C224.637 11.8535 223.584 12.6086 223.584 13.6279C223.584 16.7991 233.29 13.9677 233.29 20.1213C233.29 23.066 230.581 24.9914 226.18 24.9914C223.584 24.9914 220.988 24.1986 219.559 23.217Z" fill="black"/>
<path d="M235.171 16.9124C235.171 12.1933 238.707 8.87109 243.522 8.87109C248.413 8.87109 251.874 12.1933 251.874 16.9124C251.874 21.6314 248.375 24.9914 243.522 24.9914C238.707 24.9914 235.171 21.6314 235.171 16.9124ZM248.187 16.9124C248.187 13.8922 246.193 12.0045 243.522 12.0045C240.889 12.0045 238.895 13.9299 238.895 16.9124C238.895 19.8948 240.889 21.8202 243.522 21.8202C246.193 21.8202 248.187 19.9326 248.187 16.9124Z" fill="black"/>
<path d="M270.872 15.7798V24.8026H267.185V16.2706C267.185 13.4769 265.793 12.1178 263.461 12.1178C260.865 12.1178 259.097 13.7034 259.097 16.8746V24.8404H255.41V9.05986H258.909V11.0985C260.113 9.6639 262.031 8.87109 264.326 8.87109C268.05 8.87109 270.872 11.023 270.872 15.7798Z" fill="black"/>
<path d="M17.5307 6.11589V0L0 10.1932V13.6286V16.2713V19.7068L17.5307 29.8999V23.784L2.25717 14.95L17.5307 6.11589Z" fill="#FAE64D"/>
<path d="M25.2432 4.6063C25.2432 3.36047 26.2589 2.37891 27.5756 2.37891C28.9299 2.37891 29.908 3.28496 29.908 4.49304C29.908 5.77662 28.9299 6.79594 27.5756 6.79594C26.2589 6.83369 25.2432 5.85213 25.2432 4.6063ZM25.7322 9.40085H29.4189V25.1436H25.7322V9.40085Z" fill="black"/>
<path d="M60.4542 16.1196V25.1425H56.7675V16.6104C56.7675 13.8167 55.4884 12.4576 53.2313 12.4576C50.8236 12.4576 49.1684 14.0432 49.1684 17.1767V25.1425H45.5193V16.6104C45.5193 13.8167 44.2402 12.4576 41.983 12.4576C39.5378 12.4576 37.9201 14.0432 37.9201 17.1767V25.1425H34.2334V9.3997H37.732V11.4006C38.8982 10.0037 40.7416 9.21094 42.8859 9.21094C45.1807 9.21094 47.0993 10.0792 48.1526 11.8159C49.4317 10.1925 51.5384 9.21094 54.0213 9.21094C57.8209 9.24869 60.4542 11.3628 60.4542 16.1196Z" fill="black"/>
<path d="M80.8448 9.3997V22.7263C80.8448 28.4269 77.8728 31.0318 72.3804 31.0318C69.446 31.0318 66.5493 30.2768 64.7436 28.8044L66.3989 26.0485C67.7908 27.1811 70.0103 27.9361 72.1923 27.9361C75.6533 27.9361 77.1957 26.3505 77.1957 23.1793V22.3488C75.9166 23.7456 74.0732 24.4252 71.9289 24.4252C67.4522 24.4252 63.9912 21.3672 63.9912 16.7992C63.9912 12.2311 67.4146 9.21094 71.9289 9.21094C74.1485 9.21094 76.0671 9.92823 77.3462 11.4761V9.3997H80.8448V9.3997ZM77.2333 16.7992C77.2333 14.1565 75.2395 12.3444 72.4932 12.3444C69.7094 12.3444 67.7155 14.1565 67.7155 16.7992C67.7155 19.4796 69.7094 21.2917 72.4932 21.2917C75.2395 21.2917 77.2333 19.4796 77.2333 16.7992Z" fill="black"/>
<path d="M84.8701 15.4023H92.9583V18.498H84.8701V15.4023Z" fill="black"/>
</g>
<defs>
<clipPath id="clip0_2062_3668">
<rect width="388" height="31" fill="white"/>
</clipPath>
</defs>
</svg>
