<svg width="1086" height="257" viewBox="0 0 1086 257" fill="none" xmlns="http://www.w3.org/2000/svg">
<path d="M214.928 47.8888H17.1319C7.78725 47.8888 0 55.3657 0 65.0235V177.178C0 186.524 7.47576 194.312 17.1319 194.312H30.2145V234.812C30.2145 243.224 34.8869 250.701 42.0511 254.439C44.8545 255.997 47.9695 256.62 51.0844 256.62C55.7567 256.62 60.1176 255.062 64.1669 252.258L129.58 194.624H214.928C224.273 194.624 232.06 187.147 232.06 177.489V65.3349C232.06 55.6772 224.273 47.8888 214.928 47.8888ZM55.1337 240.42C52.3303 242.601 49.8384 241.666 48.9039 241.043C47.9695 240.42 45.4775 238.862 45.4775 234.812V124.839C45.4775 117.673 50.4613 107.081 56.0682 102.408L117.743 48.8236V185.277L55.1337 240.42Z" fill="#0050FF"/>
<path d="M192.501 13.308C192.501 3.96178 182.533 -5.07308 170.696 3.33847L130.514 37.2963H192.501V13.308Z" fill="#0050FF"/>
<path d="M361.348 198.493L321 49.4061H344.696L376.291 178.173H377.572L409.167 49.4061H432.863L392.302 198.493H361.348Z" fill="black"/>
<path d="M493.396 201.274C480.872 201.274 471.052 198.636 463.936 193.359C456.82 188.083 451.696 180.597 448.565 170.9C445.577 161.061 444.082 149.439 444.082 136.035C444.082 122.63 445.577 111.08 448.565 101.383C451.696 91.544 456.82 83.9863 463.936 78.7101C471.052 73.434 480.872 70.7959 493.396 70.7959C505.778 70.7959 515.527 73.434 522.643 78.7101C529.758 83.9863 534.811 91.544 537.8 101.383C540.788 111.08 542.283 122.63 542.283 136.035C542.283 149.439 540.788 161.061 537.8 170.9C534.811 180.597 529.758 188.083 522.643 193.359C515.527 198.636 505.778 201.274 493.396 201.274ZM493.396 182.878C498.377 182.878 502.504 182.308 505.778 181.167C509.193 179.884 511.897 177.602 513.89 174.322C516.025 171.043 517.519 166.337 518.373 160.205C519.227 153.931 519.654 145.874 519.654 136.035C519.654 126.195 519.156 118.21 518.159 112.078C517.306 105.804 515.882 101.027 513.89 97.747C511.897 94.4672 509.193 92.257 505.778 91.1162C502.504 89.8328 498.377 89.1911 493.396 89.1911C488.272 89.1911 484.003 89.8328 480.587 91.1162C477.314 92.257 474.61 94.4672 472.475 97.747C470.482 101.027 469.059 105.804 468.205 112.078C467.351 118.21 466.924 126.195 466.924 136.035C466.924 145.874 467.351 153.931 468.205 160.205C469.059 166.337 470.482 171.043 472.475 174.322C474.61 177.602 477.314 179.884 480.587 181.167C484.003 182.308 488.272 182.878 493.396 182.878Z" fill="black"/>
<path d="M620.824 201.274C610.72 201.274 601.754 199.063 593.926 194.643C586.241 190.222 580.192 183.164 575.78 173.467C571.511 163.77 569.376 151.15 569.376 135.607C569.376 122.916 570.87 112.363 573.859 103.95C576.848 95.3941 580.833 88.7633 585.814 84.0575C590.937 79.2092 596.915 75.7868 603.746 73.7905C610.72 71.7941 618.049 70.7959 625.734 70.7959C631.854 70.7959 637.832 71.2237 643.667 72.0793C649.644 72.9349 654.341 73.7904 657.756 74.646L655.195 92.6135C652.064 92.1857 647.438 91.6153 641.318 90.9023C635.199 90.0467 628.937 89.6189 622.532 89.6189C617.124 89.6189 612.712 90.0467 609.297 90.9023C606.023 91.7579 603.533 93.1126 601.825 94.9663C599.121 97.8183 596.915 102.881 595.207 110.153C593.499 117.426 592.645 126.195 592.645 136.463C592.645 146.017 593.357 153.717 594.78 159.564C596.203 165.41 597.84 169.831 599.69 172.825C601.683 175.82 603.533 177.959 605.241 179.242C606.237 179.955 607.66 180.739 609.51 181.595C611.503 182.308 614.207 182.664 617.622 182.664C621.465 182.664 625.521 182.165 629.791 181.167C634.06 180.026 638.045 178.814 641.745 177.531C645.446 176.248 648.434 175.107 650.712 174.109C652.989 173.11 654.127 172.611 654.127 172.611L660.745 189.509C660.745 189.509 659.108 190.507 655.835 192.504C652.562 194.358 647.936 196.283 641.959 198.279C635.981 200.275 628.937 201.274 620.824 201.274Z" fill="black"/>
<path d="M713.98 201.274C707.433 201.274 701.527 199.705 696.261 196.568C691.137 193.431 687.081 188.939 684.093 183.092C681.104 177.103 679.61 169.831 679.61 161.275C679.61 151.008 681.744 143.022 686.014 137.318C690.284 131.472 696.261 127.336 703.946 124.912C711.774 122.345 720.811 121.062 731.058 121.062H751.765C751.765 114.217 751.552 108.585 751.125 104.164C750.698 99.6008 749.702 96.2497 748.136 94.1107C746.998 92.3996 745.29 91.2588 743.013 90.6884C740.736 89.9754 737.96 89.6189 734.687 89.6189C729.137 89.6189 723.657 90.118 718.249 91.1162C712.983 92.1144 708.073 93.3265 703.519 94.7524C699.107 96.0358 695.549 97.1766 692.845 98.1748C690.284 99.173 689.003 99.6721 689.003 99.6721L682.598 82.7742C682.598 82.7742 683.95 82.2038 686.654 81.063C689.501 79.7796 693.272 78.3536 697.969 76.785C702.665 75.2164 707.931 73.8617 713.766 72.721C719.601 71.4376 725.721 70.7959 732.125 70.7959C742.515 70.7959 750.769 72.721 756.889 76.5711C763.009 80.2787 767.421 85.5548 770.125 92.3996C772.829 99.2443 774.181 107.372 774.181 116.784V198.493H759.878L756.675 185.231H755.395C754.398 185.944 752.619 187.156 750.058 188.868C747.496 190.579 744.365 192.432 740.665 194.429C736.964 196.283 732.837 197.851 728.283 199.135C723.729 200.561 718.961 201.274 713.98 201.274ZM719.103 182.237C723.8 182.237 728.354 181.524 732.766 180.098C737.32 178.529 741.305 176.961 744.721 175.392C748.136 173.681 750.485 172.397 751.765 171.542V139.885C750.485 139.742 747.994 139.528 744.294 139.243C740.736 138.815 736.039 138.602 730.204 138.602C718.249 138.602 710.777 139.885 707.789 142.452C706.223 143.735 704.942 145.945 703.946 149.083C703.092 152.22 702.665 156.141 702.665 160.847C702.665 168.405 703.946 173.895 706.508 177.317C709.07 180.597 713.268 182.237 719.103 182.237Z" fill="black"/>
<path d="M860.418 201.274C856.291 201.274 851.238 200.846 845.261 199.99C839.283 199.277 833.235 198.279 827.115 196.996C821.138 195.712 815.872 194.286 811.318 192.718V37H833.733V75.0738C835.441 74.646 837.931 74.1469 841.205 73.5765C844.478 72.8635 848.107 72.2219 852.092 71.6515C856.219 71.0811 860.347 70.7959 864.474 70.7959C877.567 70.7959 887.672 75.7868 894.788 85.7687C902.046 95.7506 905.675 111.864 905.675 134.11C905.675 147.799 904.395 159.064 901.833 167.906C899.271 176.604 895.784 183.377 891.372 188.226C887.103 193.074 882.264 196.497 876.856 198.493C871.448 200.347 865.968 201.274 860.418 201.274ZM859.777 182.023C863.335 182.023 866.182 181.809 868.317 181.381C870.451 180.953 872.159 180.169 873.44 179.028C874.721 177.745 876.073 175.606 877.496 172.611C878.919 169.617 880.129 164.84 881.125 158.28C882.122 151.578 882.62 142.309 882.62 130.473C882.62 118.923 882.05 110.296 880.912 104.592C879.773 98.7452 878.208 94.9663 876.215 93.2552C873.511 91.1162 868.744 90.0467 861.912 90.0467C855.081 90.0467 849.103 90.6884 843.98 91.9718C838.999 93.2552 835.583 94.2533 833.733 94.9663V179.028C834.729 179.313 836.437 179.741 838.856 180.312C841.418 180.739 844.407 181.167 847.823 181.595C851.381 181.88 855.365 182.023 859.777 182.023Z" fill="black"/>
<path d="M939.585 198.493V37H962V198.493H939.585Z" fill="black"/>
<path d="M1007.44 234L1024.52 186.301L984.176 73.5765H1007.66L1034.56 162.344H1035.41L1062.1 73.5765H1085.58L1043.31 191.22L1030.93 234H1007.44Z" fill="black"/>
</svg>
