<svg width="392" height="38" viewBox="0 0 392 38" fill="none" xmlns="http://www.w3.org/2000/svg">
<g filter="url(#filter0_d_361_32)">
<rect x="150" width="81" height="30" rx="3" fill="white"/>
</g>
<path d="M12.1775 23.2058C11.1777 23.2058 10.3054 22.9837 9.56052 22.5393C8.82216 22.0885 8.24715 21.4677 7.8355 20.6771C7.43038 19.8865 7.22782 18.9815 7.22782 17.9622V17.5505C7.22782 16.5181 7.42711 15.6001 7.8257 14.7963C8.23082 13.9926 8.78622 13.3588 9.49191 12.8949C10.1976 12.431 11.0013 12.199 11.903 12.199C12.8635 12.199 13.6672 12.3918 14.3141 12.7773C14.9675 13.1628 15.4609 13.7117 15.7941 14.4239C16.1274 15.1296 16.294 15.979 16.294 16.9722V18.3836H9.78595L9.76635 18.4326C9.79248 18.988 9.90683 19.4813 10.1094 19.9126C10.3185 20.3439 10.6125 20.6836 10.9915 20.9319C11.377 21.1802 11.8442 21.3044 12.3931 21.3044C12.9681 21.3044 13.4908 21.226 13.9613 21.0692C14.4317 20.9123 14.8663 20.6902 15.2649 20.4027L16.0391 21.9513C15.621 22.3041 15.0884 22.6014 14.4415 22.8432C13.7947 23.0849 13.04 23.2058 12.1775 23.2058ZM9.82515 16.6488H13.9319V16.394C13.9319 15.93 13.86 15.5249 13.7163 15.1786C13.579 14.8258 13.3601 14.5513 13.0596 14.3553C12.7655 14.1593 12.3898 14.0613 11.9324 14.0613C11.5338 14.0613 11.1843 14.1723 10.8837 14.3945C10.5831 14.6167 10.3414 14.9205 10.1584 15.306C9.98197 15.685 9.86109 16.1163 9.79575 16.5998L9.82515 16.6488ZM17.627 23V21.4906L19.0971 21.1966V14.2083L17.5485 13.9142V12.395H21.371L21.4984 13.9338C21.8513 13.385 22.2891 12.9602 22.8118 12.6597C23.3411 12.3526 23.939 12.199 24.6054 12.199C25.6967 12.199 26.5461 12.5355 27.1538 13.2085C27.7615 13.875 28.0653 14.9205 28.0653 16.3449V21.1966L29.5355 21.4906V23H24.2134V21.4906L25.5954 21.1966V16.3646C25.5954 15.5608 25.4353 14.9924 25.1151 14.6591C24.7949 14.3194 24.3179 14.1495 23.6841 14.1495C23.2071 14.1495 22.7889 14.2573 22.4296 14.4729C22.0767 14.682 21.7892 14.976 21.5671 15.355V21.1966L22.9098 21.4906V23H17.627ZM30.5744 23V21.4906L32.0446 21.1966V14.2083L30.4862 13.9142V12.395H34.5145V21.1966L35.9749 21.4906V23H30.5744ZM31.9466 9.99373V7.71004H34.5145V9.99373H31.9466ZM41.7674 27.2831C41.2447 27.2831 40.6632 27.2113 40.0228 27.0675C39.389 26.9303 38.8303 26.7375 38.3468 26.4892L38.8565 24.6858C39.2747 24.8753 39.7353 25.0289 40.2384 25.1465C40.7416 25.2641 41.2186 25.3229 41.6694 25.3229C42.4797 25.3229 43.071 25.0975 43.4435 24.6466C43.8224 24.2023 44.0119 23.5717 44.0119 22.755V21.9219C43.6852 22.34 43.2964 22.6602 42.8456 22.8824C42.3947 23.098 41.8785 23.2058 41.297 23.2058C40.4345 23.2058 39.6896 22.9902 39.0623 22.5589C38.4416 22.1277 37.9646 21.5233 37.6313 20.7457C37.3046 19.9681 37.1413 19.0664 37.1413 18.0406V17.8347C37.1413 16.7043 37.3046 15.7177 37.6313 14.8748C37.9646 14.0319 38.4383 13.3752 39.0525 12.9047C39.6732 12.4342 40.4116 12.199 41.2676 12.199C41.9145 12.199 42.4764 12.333 42.9534 12.6009C43.4304 12.8622 43.8355 13.2379 44.1688 13.728L44.355 12.395H46.4818V22.7648C46.4818 23.6861 46.2956 24.4833 45.9232 25.1563C45.5507 25.8358 45.0117 26.3586 44.306 26.7245C43.6003 27.0969 42.7541 27.2831 41.7674 27.2831ZM41.9635 21.2554C42.4405 21.2554 42.8456 21.1541 43.1788 20.9515C43.5186 20.749 43.7963 20.4549 44.0119 20.0694V15.3452C43.7963 14.9728 43.5186 14.682 43.1788 14.4729C42.839 14.2573 42.4372 14.1495 41.9733 14.1495C41.4309 14.1495 40.9833 14.3063 40.6305 14.6199C40.2842 14.927 40.0261 15.3583 39.8562 15.9137C39.6928 16.4626 39.6112 17.1029 39.6112 17.8347V18.0406C39.6112 19.0207 39.7974 19.8015 40.1698 20.3831C40.5488 20.9646 41.1467 21.2554 41.9635 21.2554ZM46.1486 14.2573L45.1097 12.395H47.756V13.9142L46.1486 14.2573ZM48.6087 23V21.4906L50.0789 21.1966V14.2083L48.5205 13.9142V12.395H52.5488V21.1966L54.0092 21.4906V23H48.6087ZM49.9809 9.99373V7.71004H52.5488V9.99373H49.9809ZM55.0677 23V21.4906L56.5379 21.1966V14.2083L54.9893 13.9142V12.395H58.8118L58.9392 13.9338C59.2921 13.385 59.7299 12.9602 60.2526 12.6597C60.7819 12.3526 61.3798 12.199 62.0462 12.199C63.1374 12.199 63.9869 12.5355 64.5946 13.2085C65.2022 13.875 65.5061 14.9205 65.5061 16.3449V21.1966L66.9763 21.4906V23H61.6542V21.4906L63.0362 21.1966V16.3646C63.0362 15.5608 62.8761 14.9924 62.5559 14.6591C62.2357 14.3194 61.7587 14.1495 61.1249 14.1495C60.6479 14.1495 60.2297 14.2573 59.8704 14.4729C59.5175 14.682 59.23 14.976 59.0079 15.355V21.1966L60.3506 21.4906V23H55.0677ZM72.6414 27.2831C72.1187 27.2831 71.5371 27.2113 70.8968 27.0675C70.263 26.9303 69.7043 26.7375 69.2208 26.4892L69.7304 24.6858C70.1486 24.8753 70.6093 25.0289 71.1124 25.1465C71.6155 25.2641 72.0925 25.3229 72.5434 25.3229C73.3536 25.3229 73.945 25.0975 74.3174 24.6466C74.6964 24.2023 74.8859 23.5717 74.8859 22.755V21.9219C74.5592 22.34 74.1704 22.6602 73.7195 22.8824C73.2687 23.098 72.7525 23.2058 72.1709 23.2058C71.3084 23.2058 70.5635 22.9902 69.9363 22.5589C69.3155 22.1277 68.8385 21.5233 68.5053 20.7457C68.1786 19.9681 68.0152 19.0664 68.0152 18.0406V17.8347C68.0152 16.7043 68.1786 15.7177 68.5053 14.8748C68.8385 14.0319 69.3122 13.3752 69.9265 12.9047C70.5472 12.4342 71.2856 12.199 72.1415 12.199C72.7884 12.199 73.3504 12.333 73.8274 12.6009C74.3043 12.8622 74.7095 13.2379 75.0427 13.728L75.2289 12.395H77.3558V22.7648C77.3558 23.6861 77.1696 24.4833 76.7971 25.1563C76.4247 25.8358 75.8856 26.3586 75.1799 26.7245C74.4742 27.0969 73.6281 27.2831 72.6414 27.2831ZM72.8374 21.2554C73.3144 21.2554 73.7195 21.1541 74.0528 20.9515C74.3926 20.749 74.6703 20.4549 74.8859 20.0694V15.3452C74.6703 14.9728 74.3926 14.682 74.0528 14.4729C73.713 14.2573 73.3112 14.1495 72.8472 14.1495C72.3049 14.1495 71.8573 14.3063 71.5045 14.6199C71.1581 14.927 70.9 15.3583 70.7302 15.9137C70.5668 16.4626 70.4851 17.1029 70.4851 17.8347V18.0406C70.4851 19.0207 70.6713 19.8015 71.0438 20.3831C71.4228 20.9646 72.0207 21.2554 72.8374 21.2554ZM77.0226 14.2573L75.9836 12.395H78.63V13.9142L77.0226 14.2573ZM84.3735 23V21.4906L85.4124 21.3436L90.1366 8.72937H92.5379L97.2033 21.3436L98.2423 21.4906V23H93.7043V21.4906L94.7236 21.3044L93.9689 19.0599H88.6566L87.8824 21.3044L88.9115 21.4906V23H84.3735ZM89.3035 17.1683H93.3318L91.4794 11.8854L91.352 11.5031H91.2932L91.156 11.905L89.3035 17.1683ZM102.173 23L98.85 10.3956L97.4974 10.2486V8.72937H102.77V10.2486L101.251 10.474L103.006 17.8053L103.368 19.3049L103.427 19.3147L103.878 17.8053L106.72 8.72937H108.651L111.572 17.9524L112.003 19.4127H112.062L112.444 17.9524L114.228 10.474L112.621 10.2486V8.72937H117.796V10.2486L116.531 10.3956L113.248 23H110.974L108.102 14.0122L107.74 12.7185H107.681L107.299 14.0319L104.407 23H102.173ZM124.529 23L119.854 10.4054L118.639 10.2486V8.72937H123.824V10.2486L122.53 10.4544L125.5 19.1481L125.764 20.0792H125.823L126.097 19.1579L129.106 10.4446L127.626 10.2486V8.72937H132.654V10.2486L131.42 10.4054L126.921 23H124.529ZM133.772 23V21.4906L135.33 21.1966V10.5426L133.772 10.2486V8.72937H135.33H137.83L144.377 19.1481L144.436 19.1285V10.5426L142.632 10.2486V8.72937H146.66H148.219V10.2486L146.66 10.5426V23H144.318L137.614 12.6205L137.555 12.6303V21.1966L139.359 21.4906V23H133.772ZM237.361 23.2058C236.505 23.2058 235.774 22.9902 235.166 22.5589C234.558 22.1277 234.091 21.5265 233.764 20.7555C233.444 19.9779 233.284 19.073 233.284 18.0406V17.8347C233.284 16.7043 233.444 15.7177 233.764 14.8748C234.091 14.0319 234.558 13.3752 235.166 12.9047C235.78 12.4342 236.509 12.199 237.352 12.199C237.959 12.199 238.488 12.3166 238.939 12.5519C239.397 12.7806 239.789 13.1105 240.115 13.5418V9.52327L238.557 9.22924V7.71004H240.115H242.585V21.1966L244.056 21.4906V23H240.449L240.253 21.716C239.919 22.2061 239.511 22.5785 239.028 22.8334C238.551 23.0817 237.995 23.2058 237.361 23.2058ZM238.057 21.2554C238.528 21.2554 238.933 21.1541 239.273 20.9515C239.612 20.7424 239.893 20.4419 240.115 20.0498V15.3746C239.9 14.9956 239.619 14.6983 239.273 14.4827C238.933 14.2605 238.534 14.1495 238.077 14.1495C237.541 14.1495 237.1 14.3063 236.754 14.6199C236.414 14.927 236.162 15.3583 235.999 15.9137C235.836 16.4626 235.754 17.1029 235.754 17.8347V18.0406C235.754 19.0207 235.934 19.8015 236.293 20.3831C236.659 20.9646 237.247 21.2554 238.057 21.2554ZM248.643 23.2058C247.564 23.2058 246.725 22.9281 246.124 22.3727C245.522 21.8173 245.222 21.0528 245.222 20.0792C245.222 19.0795 245.63 18.2693 246.447 17.6485C247.264 17.0278 248.43 16.7174 249.946 16.7174H251.563V15.8255C251.563 15.2635 251.393 14.816 251.054 14.4827C250.72 14.1495 250.234 13.9828 249.593 13.9828C249.227 13.9828 248.904 14.0286 248.623 14.1201C248.342 14.205 248.09 14.3292 247.868 14.4925L247.643 15.9235H245.83L245.81 13.3066C246.333 12.9668 246.914 12.6989 247.555 12.5029C248.195 12.3003 248.907 12.199 249.691 12.199C251.037 12.199 252.096 12.5159 252.867 13.1497C253.644 13.777 254.033 14.6787 254.033 15.8549V20.5301C254.033 20.6738 254.033 20.8143 254.033 20.9515C254.04 21.0888 254.05 21.2227 254.063 21.3534L255.141 21.4906V23H251.916C251.851 22.7713 251.789 22.5491 251.73 22.3335C251.678 22.1179 251.638 21.9023 251.612 21.6866C251.259 22.131 250.832 22.4969 250.328 22.7844C249.832 23.0653 249.27 23.2058 248.643 23.2058ZM249.201 21.2946C249.698 21.2946 250.162 21.1802 250.593 20.9515C251.024 20.7163 251.348 20.4223 251.563 20.0694V18.2954H249.917C249.178 18.2954 248.62 18.4686 248.241 18.8149C247.868 19.1546 247.682 19.5532 247.682 20.0106C247.682 20.4223 247.813 20.7392 248.074 20.9613C248.335 21.1835 248.711 21.2946 249.201 21.2946ZM260.149 23.1862C259.248 23.1862 258.545 22.9347 258.042 22.4315C257.539 21.9219 257.287 21.1116 257.287 20.0008V14.1593H255.739V12.395H257.287V9.81731H259.747V12.395H261.845V14.1593H259.747V20.0008C259.747 20.4517 259.839 20.7816 260.022 20.9907C260.211 21.1933 260.466 21.2946 260.786 21.2946C260.969 21.2946 261.172 21.2782 261.394 21.2456C261.623 21.2129 261.806 21.1802 261.943 21.1476L262.198 22.8824C261.91 22.9673 261.58 23.0392 261.208 23.098C260.842 23.1568 260.489 23.1862 260.149 23.1862ZM264.021 23V20.7163H266.481V23H264.021ZM274.116 12.7969V9.85652V7.71004H275.998V10.0819L275.253 12.7969H274.116ZM277.311 12.7969V9.85652V7.71004H279.193V10.0819L278.448 12.7969H277.311ZM280.938 23V21.4906L282.496 21.1966V10.5426L280.938 10.2486V8.72937H286.524V10.2486L284.966 10.5426V14.9924H291.209V10.5426L289.651 10.2486V8.72937H291.209H293.67H295.228V10.2486L293.67 10.5426V21.1966L295.228 21.4906V23H289.651V21.4906L291.209 21.1966V16.9134H284.966V21.1966L286.524 21.4906V23H280.938ZM301.511 23.2058C300.511 23.2058 299.638 22.9837 298.894 22.5393C298.155 22.0885 297.58 21.4677 297.169 20.6771C296.763 19.8865 296.561 18.9815 296.561 17.9622V17.5505C296.561 16.5181 296.76 15.6001 297.159 14.7963C297.564 13.9926 298.119 13.3588 298.825 12.8949C299.531 12.431 300.334 12.199 301.236 12.199C302.197 12.199 303 12.3918 303.647 12.7773C304.301 13.1628 304.794 13.7117 305.127 14.4239C305.46 15.1296 305.627 15.979 305.627 16.9722V18.3836H299.119L299.099 18.4326C299.126 18.988 299.24 19.4813 299.442 19.9126C299.652 20.3439 299.946 20.6836 300.325 20.9319C300.71 21.1802 301.177 21.3044 301.726 21.3044C302.301 21.3044 302.824 21.226 303.294 21.0692C303.765 20.9123 304.199 20.6902 304.598 20.4027L305.372 21.9513C304.954 22.3041 304.422 22.6014 303.775 22.8432C303.128 23.0849 302.373 23.2058 301.511 23.2058ZM299.158 16.6488H303.265V16.394C303.265 15.93 303.193 15.5249 303.049 15.1786C302.912 14.8258 302.693 14.5513 302.393 14.3553C302.099 14.1593 301.723 14.0613 301.266 14.0613C300.867 14.0613 300.517 14.1723 300.217 14.3945C299.916 14.6167 299.674 14.9205 299.491 15.306C299.315 15.685 299.194 16.1163 299.129 16.5998L299.158 16.6488ZM311.018 23.1862C310.116 23.1862 309.414 22.9347 308.91 22.4315C308.407 21.9219 308.156 21.1116 308.156 20.0008V14.1593H306.607V12.395H308.156V9.81731H310.616V12.395H312.713V14.1593H310.616V20.0008C310.616 20.4517 310.707 20.7816 310.89 20.9907C311.08 21.1933 311.335 21.2946 311.655 21.2946C311.838 21.2946 312.04 21.2782 312.262 21.2456C312.491 21.2129 312.674 21.1802 312.811 21.1476L313.066 22.8824C312.779 22.9673 312.449 23.0392 312.076 23.098C311.71 23.1568 311.357 23.1862 311.018 23.1862ZM319.104 23V21.4906L320.574 21.1966V14.2083L319.016 13.9142V12.395H323.044V21.1966L324.504 21.4906V23H319.104ZM320.476 9.99373V7.71004H323.044V9.99373H320.476ZM330.071 23.2058C329.313 23.2058 328.604 23.134 327.944 22.9902C327.291 22.8399 326.634 22.621 325.974 22.3335L325.945 19.5304H327.719L328.092 21.0594C328.372 21.1835 328.66 21.2815 328.954 21.3534C329.255 21.4187 329.588 21.4514 329.954 21.4514C330.659 21.4514 331.156 21.3273 331.444 21.079C331.738 20.8307 331.885 20.5235 331.885 20.1576C331.885 19.8048 331.731 19.5042 331.424 19.2559C331.123 19.0011 330.545 18.7822 329.689 18.5992C328.421 18.3248 327.487 17.9262 326.886 17.4035C326.291 16.8742 325.994 16.1881 325.994 15.3452C325.994 14.7637 326.148 14.2377 326.455 13.7672C326.768 13.2968 327.226 12.921 327.827 12.6401C328.435 12.3526 329.179 12.2088 330.062 12.2088C330.865 12.2088 331.577 12.2938 332.198 12.4637C332.826 12.627 333.358 12.8459 333.796 13.1203L333.855 15.8157H332.1L331.796 14.4141C331.594 14.2703 331.359 14.1593 331.091 14.0809C330.823 14.0024 330.516 13.9632 330.169 13.9632C329.627 13.9632 329.199 14.0841 328.885 14.3259C328.572 14.5611 328.415 14.8584 328.415 15.2178C328.415 15.4269 328.464 15.6164 328.562 15.7863C328.667 15.9562 328.863 16.113 329.15 16.2567C329.444 16.394 329.872 16.5279 330.434 16.6586C331.813 16.9788 332.799 17.3969 333.394 17.9131C333.989 18.4293 334.286 19.1122 334.286 19.9616C334.286 20.9091 333.94 21.6866 333.247 22.2943C332.554 22.902 331.496 23.2058 330.071 23.2058ZM345.352 27.2831C344.829 27.2831 344.247 27.2113 343.607 27.0675C342.973 26.9303 342.414 26.7375 341.931 26.4892L342.441 24.6858C342.859 24.8753 343.319 25.0289 343.823 25.1465C344.326 25.2641 344.803 25.3229 345.254 25.3229C346.064 25.3229 346.655 25.0975 347.028 24.6466C347.407 24.2023 347.596 23.5717 347.596 22.755V21.9219C347.269 22.34 346.881 22.6602 346.43 22.8824C345.979 23.098 345.463 23.2058 344.881 23.2058C344.019 23.2058 343.274 22.9902 342.646 22.5589C342.026 22.1277 341.549 21.5233 341.215 20.7457C340.889 19.9681 340.725 19.0664 340.725 18.0406V17.8347C340.725 16.7043 340.889 15.7177 341.215 14.8748C341.549 14.0319 342.022 13.3752 342.637 12.9047C343.257 12.4342 343.996 12.199 344.852 12.199C345.499 12.199 346.06 12.333 346.537 12.6009C347.014 12.8622 347.42 13.2379 347.753 13.728L347.939 12.395H350.066V22.7648C350.066 23.6861 349.88 24.4833 349.507 25.1563C349.135 25.8358 348.596 26.3586 347.89 26.7245C347.184 27.0969 346.338 27.2831 345.352 27.2831ZM345.548 21.2554C346.025 21.2554 346.43 21.1541 346.763 20.9515C347.103 20.749 347.38 20.4549 347.596 20.0694V15.3452C347.38 14.9728 347.103 14.682 346.763 14.4729C346.423 14.2573 346.021 14.1495 345.557 14.1495C345.015 14.1495 344.567 14.3063 344.215 14.6199C343.868 14.927 343.61 15.3583 343.44 15.9137C343.277 16.4626 343.195 17.1029 343.195 17.8347V18.0406C343.195 19.0207 343.381 19.8015 343.754 20.3831C344.133 20.9646 344.731 21.2554 345.548 21.2554ZM349.733 14.2573L348.694 12.395H351.34V13.9142L349.733 14.2573ZM357.113 23.2058C356.094 23.2058 355.218 22.9771 354.486 22.5197C353.754 22.0623 353.193 21.4285 352.8 20.6183C352.408 19.8015 352.212 18.8639 352.212 17.8053V17.5995C352.212 16.5475 352.408 15.6164 352.8 14.8062C353.193 13.9959 353.754 13.3588 354.486 12.8949C355.218 12.431 356.087 12.199 357.093 12.199C358.113 12.199 358.988 12.431 359.72 12.8949C360.452 13.3523 361.014 13.9861 361.406 14.7963C361.798 15.6066 361.994 16.541 361.994 17.5995V17.8053C361.994 18.8639 361.798 19.8015 361.406 20.6183C361.014 21.4285 360.452 22.0623 359.72 22.5197C358.995 22.9771 358.126 23.2058 357.113 23.2058ZM357.113 21.3044C357.662 21.3044 358.113 21.1574 358.466 20.8633C358.825 20.5628 359.093 20.1511 359.269 19.6284C359.446 19.0991 359.534 18.4914 359.534 17.8053V17.5995C359.534 16.92 359.446 16.3188 359.269 15.7961C359.093 15.2733 358.825 14.8617 358.466 14.5611C358.106 14.2605 357.649 14.1103 357.093 14.1103C356.551 14.1103 356.1 14.2605 355.741 14.5611C355.381 14.8617 355.114 15.2733 354.937 15.7961C354.767 16.3188 354.682 16.92 354.682 17.5995V17.8053C354.682 18.4914 354.767 19.0991 354.937 19.6284C355.114 20.1511 355.381 20.5628 355.741 20.8633C356.107 21.1574 356.564 21.3044 357.113 21.3044ZM368.551 23.2058C367.551 23.2058 366.679 22.9837 365.934 22.5393C365.196 22.0885 364.621 21.4677 364.209 20.6771C363.804 19.8865 363.601 18.9815 363.601 17.9622V17.5505C363.601 16.5181 363.801 15.6001 364.199 14.7963C364.604 13.9926 365.16 13.3588 365.866 12.8949C366.571 12.431 367.375 12.199 368.277 12.199C369.237 12.199 370.041 12.3918 370.688 12.7773C371.341 13.1628 371.835 13.7117 372.168 14.4239C372.501 15.1296 372.668 15.979 372.668 16.9722V18.3836H366.16L366.14 18.4326C366.166 18.988 366.281 19.4813 366.483 19.9126C366.692 20.3439 366.986 20.6836 367.365 20.9319C367.751 21.1802 368.218 21.3044 368.767 21.3044C369.342 21.3044 369.864 21.226 370.335 21.0692C370.805 20.9123 371.24 20.6902 371.639 20.4027L372.413 21.9513C371.995 22.3041 371.462 22.6014 370.815 22.8432C370.168 23.0849 369.414 23.2058 368.551 23.2058ZM366.199 16.6488H370.306V16.394C370.306 15.93 370.234 15.5249 370.09 15.1786C369.953 14.8258 369.734 14.5513 369.433 14.3553C369.139 14.1593 368.763 14.0613 368.306 14.0613C367.908 14.0613 367.558 14.1723 367.257 14.3945C366.957 14.6167 366.715 14.9205 366.532 15.306C366.356 15.685 366.235 16.1163 366.169 16.5998L366.199 16.6488ZM378.343 23.2058C377.487 23.2058 376.755 22.9902 376.147 22.5589C375.539 22.1277 375.072 21.5265 374.746 20.7555C374.425 19.9779 374.265 19.073 374.265 18.0406V17.8347C374.265 16.7043 374.425 15.7177 374.746 14.8748C375.072 14.0319 375.539 13.3752 376.147 12.9047C376.761 12.4342 377.49 12.199 378.333 12.199C378.94 12.199 379.47 12.3166 379.921 12.5519C380.378 12.7806 380.77 13.1105 381.097 13.5418V9.52327L379.538 9.22924V7.71004H381.097H383.567V21.1966L385.037 21.4906V23H381.43L381.234 21.716C380.901 22.2061 380.492 22.5785 380.009 22.8334C379.532 23.0817 378.976 23.2058 378.343 23.2058ZM379.038 21.2554C379.509 21.2554 379.914 21.1541 380.254 20.9515C380.594 20.7424 380.875 20.4419 381.097 20.0498V15.3746C380.881 14.9956 380.6 14.6983 380.254 14.4827C379.914 14.2605 379.515 14.1495 379.058 14.1495C378.522 14.1495 378.081 14.3063 377.735 14.6199C377.395 14.927 377.144 15.3583 376.98 15.9137C376.817 16.4626 376.735 17.1029 376.735 17.8347V18.0406C376.735 19.0207 376.915 19.8015 377.274 20.3831C377.64 20.9646 378.228 21.2554 379.038 21.2554Z" fill="url(#paint0_linear_361_32)"/>
<path d="M154.227 23V21.4906L155.697 21.1966V9.52327L154.139 9.22924V7.71004H158.157V13.7672C158.504 13.2706 158.932 12.8851 159.441 12.6107C159.951 12.3362 160.526 12.199 161.166 12.199C162.258 12.199 163.114 12.5486 163.734 13.2478C164.362 13.9404 164.675 15.012 164.675 16.4626V21.1966L166.145 21.4906V23H160.823V21.4906L162.215 21.1966V16.443C162.215 15.6327 162.052 15.0479 161.725 14.6885C161.398 14.3292 160.918 14.1495 160.284 14.1495C159.833 14.1495 159.425 14.2507 159.059 14.4533C158.7 14.6493 158.399 14.927 158.157 15.2864V21.1966L159.549 21.4906V23H154.227ZM172.075 23.2058C171.075 23.2058 170.203 22.9837 169.458 22.5393C168.72 22.0885 168.145 21.4677 167.733 20.6771C167.328 19.8865 167.126 18.9815 167.126 17.9622V17.5505C167.126 16.5181 167.325 15.6001 167.723 14.7963C168.129 13.9926 168.684 13.3588 169.39 12.8949C170.095 12.431 170.899 12.199 171.801 12.199C172.761 12.199 173.565 12.3918 174.212 12.7773C174.865 13.1628 175.359 13.7117 175.692 14.4239C176.025 15.1296 176.192 15.979 176.192 16.9722V18.3836H169.684L169.664 18.4326C169.69 18.988 169.805 19.4813 170.007 19.9126C170.216 20.3439 170.51 20.6836 170.889 20.9319C171.275 21.1802 171.742 21.3044 172.291 21.3044C172.866 21.3044 173.389 21.226 173.859 21.0692C174.329 20.9123 174.764 20.6902 175.163 20.4027L175.937 21.9513C175.519 22.3041 174.986 22.6014 174.339 22.8432C173.692 23.0849 172.938 23.2058 172.075 23.2058ZM169.723 16.6488H173.83V16.394C173.83 15.93 173.758 15.5249 173.614 15.1786C173.477 14.8258 173.258 14.5513 172.957 14.3553C172.663 14.1593 172.288 14.0613 171.83 14.0613C171.432 14.0613 171.082 14.1723 170.781 14.3945C170.481 14.6167 170.239 14.9205 170.056 15.306C169.88 15.685 169.759 16.1163 169.693 16.5998L169.723 16.6488ZM177.701 23V21.4906L179.171 21.1966V14.2083L177.623 13.9142V12.395H181.445L181.573 13.728L181.592 13.9436C181.873 13.3817 182.216 12.9504 182.621 12.6499C183.033 12.3493 183.513 12.199 184.062 12.199C184.245 12.199 184.438 12.2154 184.64 12.248C184.849 12.2807 185.019 12.3166 185.15 12.3558L184.866 14.6395L183.484 14.5611C183.033 14.535 182.66 14.6232 182.366 14.8258C182.079 15.0283 181.837 15.3093 181.641 15.6687V21.1966L183.111 21.4906V23H177.701ZM185.65 23V21.4906L187.13 21.1966V9.52327L185.562 9.22924V7.71004H189.59V21.1966L190.972 21.4906V23H185.65ZM192.423 23V21.5396L193.354 21.373L193.324 21.3338L190.815 18.021L192.295 16.2861L196.108 21.2162L197.519 21.4906V23H192.423ZM189.355 20.0302L188.257 18.462L192.864 14.0907L192.893 14.0515L191.785 13.9044V12.395H196.902V13.9142L195.539 14.2279L189.355 20.0302ZM202.988 23.2058C201.989 23.2058 201.116 22.9837 200.371 22.5393C199.633 22.0885 199.058 21.4677 198.646 20.6771C198.241 19.8865 198.039 18.9815 198.039 17.9622V17.5505C198.039 16.5181 198.238 15.6001 198.637 14.7963C199.042 13.9926 199.597 13.3588 200.303 12.8949C201.008 12.431 201.812 12.199 202.714 12.199C203.674 12.199 204.478 12.3918 205.125 12.7773C205.778 13.1628 206.272 13.7117 206.605 14.4239C206.938 15.1296 207.105 15.979 207.105 16.9722V18.3836H200.597L200.577 18.4326C200.603 18.988 200.718 19.4813 200.92 19.9126C201.129 20.3439 201.423 20.6836 201.802 20.9319C202.188 21.1802 202.655 21.3044 203.204 21.3044C203.779 21.3044 204.302 21.226 204.772 21.0692C205.243 20.9123 205.677 20.6902 206.076 20.4027L206.85 21.9513C206.432 22.3041 205.899 22.6014 205.252 22.8432C204.606 23.0849 203.851 23.2058 202.988 23.2058ZM200.636 16.6488H204.743V16.394C204.743 15.93 204.671 15.5249 204.527 15.1786C204.39 14.8258 204.171 14.5513 203.87 14.3553C203.576 14.1593 203.201 14.0613 202.743 14.0613C202.345 14.0613 201.995 14.1723 201.695 14.3945C201.394 14.6167 201.152 14.9205 200.969 15.306C200.793 15.685 200.672 16.1163 200.607 16.5998L200.636 16.6488ZM208.438 23V21.4906L209.908 21.1966V14.2083L208.359 13.9142V12.395H212.182L212.309 13.9338C212.662 13.385 213.1 12.9602 213.623 12.6597C214.152 12.3526 214.75 12.199 215.416 12.199C216.507 12.199 217.357 12.5355 217.965 13.2085C218.572 13.875 218.876 14.9205 218.876 16.3449V21.1966L220.346 21.4906V23H215.024V21.4906L216.406 21.1966V16.3646C216.406 15.5608 216.246 14.9924 215.926 14.6591C215.606 14.3194 215.129 14.1495 214.495 14.1495C214.018 14.1495 213.6 14.2573 213.24 14.4729C212.888 14.682 212.6 14.976 212.378 15.355V21.1966L213.721 21.4906V23H208.438ZM225.08 23.1862C224.179 23.1862 223.476 22.9347 222.973 22.4315C222.47 21.9219 222.218 21.1116 222.218 20.0008V14.1593H220.67V12.395H222.218V9.81731H224.678V12.395H226.776V14.1593H224.678V20.0008C224.678 20.4517 224.77 20.7816 224.953 20.9907C225.142 21.1933 225.397 21.2946 225.717 21.2946C225.9 21.2946 226.103 21.2782 226.325 21.2456C226.554 21.2129 226.737 21.1802 226.874 21.1476L227.129 22.8824C226.841 22.9673 226.511 23.0392 226.139 23.098C225.773 23.1568 225.42 23.1862 225.08 23.1862Z" fill="black"/>
<defs>
<filter id="filter0_d_361_32" x="146" y="0" width="89" height="38" filterUnits="userSpaceOnUse" color-interpolation-filters="sRGB">
<feFlood flood-opacity="0" result="BackgroundImageFix"/>
<feColorMatrix in="SourceAlpha" type="matrix" values="0 0 0 0 0 0 0 0 0 0 0 0 0 0 0 0 0 0 127 0" result="hardAlpha"/>
<feOffset dy="4"/>
<feGaussianBlur stdDeviation="2"/>
<feComposite in2="hardAlpha" operator="out"/>
<feColorMatrix type="matrix" values="0 0 0 0 0 0 0 0 0 0 0 0 0 0 0 0 0 0 0.25 0"/>
<feBlend mode="normal" in2="BackgroundImageFix" result="effect1_dropShadow_361_32"/>
<feBlend mode="normal" in="SourceGraphic" in2="effect1_dropShadow_361_32" result="shape"/>
</filter>
<linearGradient id="paint0_linear_361_32" x1="0" y1="18" x2="392" y2="18" gradientUnits="userSpaceOnUse">
<stop offset="0.0432692" stop-opacity="0"/>
<stop offset="0.495192"/>
<stop offset="0.956731" stop-opacity="0"/>
</linearGradient>
</defs>
</svg>
